0
SECTION
2
HEADER
9
$INSUNITS
70
1
9
$ACADVER
1
AC1014
9
$HANDSEED
5
FFFF
0
ENDSEC
0
SECTION
2
TABLES
0
TABLE
2
VPORT
5
8
100
AcDbSymbolTable
0
ENDTAB
0
TABLE
2
LTYPE
5
5
100
AcDbSymbolTable
0
LTYPE
5
14
100
AcDbSymbolTableRecord
100
AcDbLinetypeTableRecord
2
BYBLOCK
70
0
0
LTYPE
5
15
100
AcDbSymbolTableRecord
100
AcDbLinetypeTableRecord
2
BYLAYER
70
0
0
LTYPE
5
16
100
AcDbSymbolTableRecord
100
AcDbLinetypeTableRecord
2
DASHED
70
0
3
Dashed __ __ __ __ __ __ __ __ __ __ __ __ __ _
72
65
73
2
40
0.75
49
0.5
74
0
49
-0.25
74
0
0
ENDTAB
0
TABLE
2
LAYER
5
2
100
AcDbSymbolTable
70
2
0
LAYER
5
50
100
AcDbSymbolTableRecord
100
AcDbLayerTableRecord
2
0
70
0
62
7
6
CONTINUOUS
0
ENDTAB
0
TABLE
2
STYLE
5
3
100
AcDbSymbolTable
70
1
0
STYLE
5
11
100
AcDbSymbolTableRecord
100
AcDbTextStyleTableRecord
2
STANDARD
70
0
0
ENDTAB
0
TABLE
2
VIEW
5
6
100
AcDbSymbolTable
70
0
0
ENDTAB
0
TABLE
2
UCS
5
7
100
AcDbSymbolTable
70
0
0
ENDTAB
0
TABLE
2
APPID
5
9
100
AcDbSymbolTable
70
2
0
APPID
5
12
100
AcDbSymbolTableRecord
100
AcDbRegAppTableRecord
2
ACAD
70
0
0
ENDTAB
0
TABLE
2
DIMSTYLE
5
A
100
AcDbSymbolTable
70
1
0
ENDTAB
0
TABLE
2
BLOCK_RECORD
5
1
100
AcDbSymbolTable
70
1
0
BLOCK_RECORD
5
1F
100
AcDbSymbolTableRecord
100
AcDbBlockTableRecord
2
*MODEL_SPACE
0
BLOCK_RECORD
5
1B
100
AcDbSymbolTableRecord
100
AcDbBlockTableRecord
2
*PAPER_SPACE
0
ENDTAB
0
ENDSEC
0
SECTION
2
BLOCKS
0
BLOCK
5
20
100
AcDbEntity
100
AcDbBlockBegin
2
*MODEL_SPACE
0
ENDBLK
5
21
100
AcDbEntity
100
AcDbBlockEnd
0
BLOCK
5
1C
100
AcDbEntity
100
AcDbBlockBegin
2
*PAPER_SPACE
0
ENDBLK
5
1D
100
AcDbEntity
100
AcDbBlockEnd
0
ENDSEC
0
SECTION
2
ENTITIES
0
LWPOLYLINE
5
100
100
AcDbEntity
8
0
100
AcDbPolyline
90
32
70
1
43
0.0
10
1.2401574803149604
20
1.3097894860201832e-29
10
0.39370078740157477
20
2.18547839493272e-17
10
0.39370078740157471
20
-0.15748031496062992
10
-0.39370078740157471
20
-0.15748031496062992
10
-0.39370078740157471
20
2.1854783949314103e-17
10
-1.2401574803149604
20
1.3097536806050139e-29
10
-1.4763779527559051
20
-0.23622047244094471
10
-1.4763779527559051
20
-1.0826771653543306
10
-1.3188976377952752
20
-1.082677165354331
10
-1.3188976377952752
20
-1.8700787401574801
10
-1.4763779527559051
20
-1.8700787401574801
10
-1.4763779527559051
20
-2.7165354330708662
10
-1.2401574803149604
20
-2.9527559055118107
10
-0.83661417322834641
20
-2.9527559055118107
10
-0.83661417322834641
20
-2.7952755905511806
10
-0.60039370078740151
20
-2.7952755905511806
10
-0.60039370078740151
20
-2.9527559055118107
10
-0.25393700787401602
20
-2.9527559055118107
10
-0.25393700787401602
20
-2.7165354330708662
10
0.25393700787400619
20
-2.7165354330708666
10
0.25393700787400614
20
-2.9527559055118107
10
0.60039370078740117
20
-2.9527559055118107
10
0.60039370078740117
20
-2.7952755905511806
10
0.83661417322834608
20
-2.7952755905511806
10
0.83661417322834608
20
-2.9527559055118107
10
1.24015748031496
20
-2.9527559055118107
10
1.4763779527559051
20
-2.7165354330708662
10
1.4763779527559051
20
-1.8700787401574801
10
1.3188976377952755
20
-1.8700787401574801
10
1.3188976377952755
20
-1.0826771653543306
10
1.4763779527559051
20
-1.0826771653543306
10
1.4763779527559053
20
-0.23622047244094471
0
LWPOLYLINE
5
101
100
AcDbEntity
8
0
100
AcDbPolyline
90
4
70
1
43
0.0
10
0.39370078740157488
20
-1.5551181102362202
10
-0.39370078740157466
20
-1.5551181102362202
10
-0.39370078740157466
20
-1.3976377952755905
10
0.39370078740157488
20
-1.3976377952755905
0
ENDSEC
0
SECTION
2
OBJECTS
0
DICTIONARY
5
C
100
AcDbDictionary
3
ACAD_GROUP
350
D
3
ACAD_MLINESTYLE
350
17
0
DICTIONARY
5
D
100
AcDbDictionary
0
DICTIONARY
5
1A
330
C
100
AcDbDictionary
0
DICTIONARY
5
17
100
AcDbDictionary
0
ENDSEC
0
EOF
