0
SECTION
2
HEADER
9
$INSUNITS
70
1
9
$ACADVER
1
AC1014
9
$HANDSEED
5
FFFF
0
ENDSEC
0
SECTION
2
TABLES
0
TABLE
2
VPORT
5
8
100
AcDbSymbolTable
0
ENDTAB
0
TABLE
2
LTYPE
5
5
100
AcDbSymbolTable
0
LTYPE
5
14
100
AcDbSymbolTableRecord
100
AcDbLinetypeTableRecord
2
BYBLOCK
70
0
0
LTYPE
5
15
100
AcDbSymbolTableRecord
100
AcDbLinetypeTableRecord
2
BYLAYER
70
0
0
LTYPE
5
16
100
AcDbSymbolTableRecord
100
AcDbLinetypeTableRecord
2
DASHED
70
0
3
Dashed __ __ __ __ __ __ __ __ __ __ __ __ __ _
72
65
73
2
40
0.75
49
0.5
74
0
49
-0.25
74
0
0
ENDTAB
0
TABLE
2
LAYER
5
2
100
AcDbSymbolTable
70
2
0
LAYER
5
50
100
AcDbSymbolTableRecord
100
AcDbLayerTableRecord
2
0
70
0
62
7
6
CONTINUOUS
0
ENDTAB
0
TABLE
2
STYLE
5
3
100
AcDbSymbolTable
70
1
0
STYLE
5
11
100
AcDbSymbolTableRecord
100
AcDbTextStyleTableRecord
2
STANDARD
70
0
0
ENDTAB
0
TABLE
2
VIEW
5
6
100
AcDbSymbolTable
70
0
0
ENDTAB
0
TABLE
2
UCS
5
7
100
AcDbSymbolTable
70
0
0
ENDTAB
0
TABLE
2
APPID
5
9
100
AcDbSymbolTable
70
2
0
APPID
5
12
100
AcDbSymbolTableRecord
100
AcDbRegAppTableRecord
2
ACAD
70
0
0
ENDTAB
0
TABLE
2
DIMSTYLE
5
A
100
AcDbSymbolTable
70
1
0
ENDTAB
0
TABLE
2
BLOCK_RECORD
5
1
100
AcDbSymbolTable
70
1
0
BLOCK_RECORD
5
1F
100
AcDbSymbolTableRecord
100
AcDbBlockTableRecord
2
*MODEL_SPACE
0
BLOCK_RECORD
5
1B
100
AcDbSymbolTableRecord
100
AcDbBlockTableRecord
2
*PAPER_SPACE
0
ENDTAB
0
ENDSEC
0
SECTION
2
BLOCKS
0
BLOCK
5
20
100
AcDbEntity
100
AcDbBlockBegin
2
*MODEL_SPACE
0
ENDBLK
5
21
100
AcDbEntity
100
AcDbBlockEnd
0
BLOCK
5
1C
100
AcDbEntity
100
AcDbBlockBegin
2
*PAPER_SPACE
0
ENDBLK
5
1D
100
AcDbEntity
100
AcDbBlockEnd
0
ENDSEC
0
SECTION
2
ENTITIES
0
LWPOLYLINE
5
100
100
AcDbEntity
8
0
100
AcDbPolyline
90
24
70
1
43
0.0
10
2.2047244094488185
20
-2.5590551181102357
10
2.2047244094488185
20
-0.39370078740157444
42
0.41421356237309459
10
2.1259842519685037
20
-0.31496062992125956
10
1.3779527559055469
20
-0.31496062992125962
10
1.3779527559055469
20
-0.23622047244094502
10
0.68897637795275579
20
-0.23622047244094502
10
0.68897637795275579
20
-0.47244094488188954
10
-0.68897637795275579
20
-0.47244094488188954
10
-0.68897637795275579
20
-0.23622047244094502
10
-1.3779527559054765
20
-0.23622047244094502
10
-1.3779527559054765
20
-0.31496062992125962
10
-2.1259842519685037
20
-0.31496062992125956
42
0.41421356237309503
10
-2.2047244094488185
20
-0.3937007874015746
10
-2.2047244094488185
20
-2.5590551181102361
42
0.4142135623730937
10
-2.1259842519685037
20
-2.6377952755905505
10
-1.3779527559054765
20
-2.6377952755905505
10
-1.3779527559054765
20
-2.9527559055118107
10
-0.68897637795275579
20
-2.9527559055118107
10
-0.68897637795275579
20
-2.6377952755905505
10
0.6889763779527559
20
-2.6377952755905505
10
0.68897637795275579
20
-2.9527559055118107
10
1.3779527559055469
20
-2.9527559055118107
10
1.3779527559055469
20
-2.6377952755905505
10
2.1259842519685037
20
-2.6377952755905505
42
0.41421356237309503
0
LWPOLYLINE
5
101
100
AcDbEntity
8
0
100
AcDbPolyline
90
8
70
1
43
0.0
10
0.79724409448818867
20
-0.9448818897637794
10
1.7027559055118109
20
-0.94488188976377929
42
-0.41421356237309503
10
1.7814960629921259
20
-1.0236220472440942
10
1.7814960629921259
20
-1.9291338582677158
42
-0.4142135623730937
10
1.7027559055118113
20
-2.007874015748031
10
0.79724409448818867
20
-2.007874015748031
42
-0.41421356237309503
10
0.71850393700787374
20
-1.9291338582677158
10
0.71850393700787385
20
-1.0236220472440942
42
-0.41421356237309503
0
LWPOLYLINE
5
102
100
AcDbEntity
8
0
100
AcDbPolyline
90
8
70
1
43
0.0
10
-1.7814960629921259
20
-1.9291338582677158
42
0.41421356237309503
10
-1.7027559055118109
20
-2.007874015748031
10
-0.79724409448818867
20
-2.007874015748031
42
0.41421356237309503
10
-0.71850393700787374
20
-1.9291338582677158
10
-0.71850393700787374
20
-1.0236220472440942
42
0.41421356237309503
10
-0.79724409448818867
20
-0.9448818897637794
10
-1.7027559055118109
20
-0.9448818897637794
42
0.41421356237309503
10
-1.7814960629921259
20
-1.0236220472440944
0
ENDSEC
0
SECTION
2
OBJECTS
0
DICTIONARY
5
C
100
AcDbDictionary
3
ACAD_GROUP
350
D
3
ACAD_MLINESTYLE
350
17
0
DICTIONARY
5
D
100
AcDbDictionary
0
DICTIONARY
5
1A
330
C
100
AcDbDictionary
0
DICTIONARY
5
17
100
AcDbDictionary
0
ENDSEC
0
EOF
