0
SECTION
2
HEADER
9
$INSUNITS
70
1
9
$ACADVER
1
AC1014
9
$HANDSEED
5
FFFF
0
ENDSEC
0
SECTION
2
TABLES
0
TABLE
2
VPORT
5
8
100
AcDbSymbolTable
0
ENDTAB
0
TABLE
2
LTYPE
5
5
100
AcDbSymbolTable
0
LTYPE
5
14
100
AcDbSymbolTableRecord
100
AcDbLinetypeTableRecord
2
BYBLOCK
70
0
0
LTYPE
5
15
100
AcDbSymbolTableRecord
100
AcDbLinetypeTableRecord
2
BYLAYER
70
0
0
LTYPE
5
16
100
AcDbSymbolTableRecord
100
AcDbLinetypeTableRecord
2
DASHED
70
0
3
Dashed __ __ __ __ __ __ __ __ __ __ __ __ __ _
72
65
73
2
40
0.75
49
0.5
74
0
49
-0.25
74
0
0
ENDTAB
0
TABLE
2
LAYER
5
2
100
AcDbSymbolTable
70
2
0
LAYER
5
50
100
AcDbSymbolTableRecord
100
AcDbLayerTableRecord
2
0
70
0
62
7
6
CONTINUOUS
0
ENDTAB
0
TABLE
2
STYLE
5
3
100
AcDbSymbolTable
70
1
0
STYLE
5
11
100
AcDbSymbolTableRecord
100
AcDbTextStyleTableRecord
2
STANDARD
70
0
0
ENDTAB
0
TABLE
2
VIEW
5
6
100
AcDbSymbolTable
70
0
0
ENDTAB
0
TABLE
2
UCS
5
7
100
AcDbSymbolTable
70
0
0
ENDTAB
0
TABLE
2
APPID
5
9
100
AcDbSymbolTable
70
2
0
APPID
5
12
100
AcDbSymbolTableRecord
100
AcDbRegAppTableRecord
2
ACAD
70
0
0
ENDTAB
0
TABLE
2
DIMSTYLE
5
A
100
AcDbSymbolTable
70
1
0
ENDTAB
0
TABLE
2
BLOCK_RECORD
5
1
100
AcDbSymbolTable
70
1
0
BLOCK_RECORD
5
1F
100
AcDbSymbolTableRecord
100
AcDbBlockTableRecord
2
*MODEL_SPACE
0
BLOCK_RECORD
5
1B
100
AcDbSymbolTableRecord
100
AcDbBlockTableRecord
2
*PAPER_SPACE
0
ENDTAB
0
ENDSEC
0
SECTION
2
BLOCKS
0
BLOCK
5
20
100
AcDbEntity
100
AcDbBlockBegin
2
*MODEL_SPACE
0
ENDBLK
5
21
100
AcDbEntity
100
AcDbBlockEnd
0
BLOCK
5
1C
100
AcDbEntity
100
AcDbBlockBegin
2
*PAPER_SPACE
0
ENDBLK
5
1D
100
AcDbEntity
100
AcDbBlockEnd
0
ENDSEC
0
SECTION
2
ENTITIES
0
LWPOLYLINE
5
100
100
AcDbEntity
8
0
100
AcDbPolyline
90
56
70
1
43
0.0
10
-2.3622047244094482
20
0.25393700787401585
10
-2.0866141732283459
20
0.25393700787401574
42
-0.41421356237309631
10
-2.0472440944881884
20
0.21456692913385822
42
0.4142135623730957
10
-2.007874015748031
20
0.17519685039370081
10
-1.7322834645669285
20
0.17519685039370081
42
0.41421356237310675
10
-1.6929133858267704
20
0.2145669291338583
10
-1.6929133858267711
20
0.38073592433070735
42
-0.41421356237308982
10
-1.6535433070866143
20
0.42010600307086476
10
-1.5708661417322813
20
0.42010600307086615
42
-0.41421356237309537
10
-1.5314960629921239
20
0.38073592433070846
42
0.41421356237309437
10
-1.4921259842519663
20
0.34136584559055089
10
-1.4527559055118093
20
0.341365845590551
42
-0.4142135623730937
10
-1.4133858267716519
20
0.30199576685039348
10
-1.4133858267716519
20
-0.30627194968504168
42
-0.41421356237309503
10
-1.4527559055118096
20
-0.34564202842519914
10
-1.4921259842519676
20
-0.34564202842519914
42
0.41421356237309309
10
-1.531496062992125
20
-0.38501210716535661
42
-0.41421356237309243
10
-1.5708661417322825
20
-0.42438218590551419
10
-1.6535433070866137
20
-0.42438218590551419
42
-0.41421356237309503
10
-1.6929133858267711
20
-0.38501210716535683
10
-1.6929133858267704
20
-0.2145669291338583
42
0.41421356237310675
10
-1.7322834645669285
20
-0.17519685039370081
10
-2.0078740157480306
20
-0.17519685039370081
42
0.4142135623730957
10
-2.047244094488188
20
-0.2145669291338583
42
-0.41421356237309537
10
-2.0866141732283454
20
-0.2539370078740158
10
-2.3622047244094482
20
-0.2539370078740158
10
-2.3622047244094482
20
-0.3937007874015746
10
-2.0866141732283463
20
-0.3937007874015746
42
-0.41421356237309503
10
-2.007874015748031
20
-0.47244094488188965
10
-2.007874015748031
20
-0.61023622047244497
42
0.4142135623730947
10
-1.8503937007874012
20
-0.76771653543307417
10
-0.68897637795275579
20
-0.76771653543307039
10
-0.68897637795275579
20
-0.9251968503937027
10
0.68897637795275579
20
-0.9251968503937027
10
0.68897637795275579
20
-0.76771653543306562
10
1.8503937007874018
20
-0.76771653543306162
42
0.41421356237309392
10
2.007874015748031
20
-0.61023622047243153
10
2.007874015748031
20
-0.35433070866141542
42
-0.41421356237309503
10
2.0866141732283463
20
-0.27559055118110037
10
2.2440944881889773
20
-0.27559055118110037
42
0.41421356237309503
10
2.2834645669291347
20
-0.23622047244094294
10
2.2834645669291338
20
0.23622047244094338
42
0.4142135623730957
10
2.2440944881889764
20
0.27559055118110082
10
2.0866141732283467
20
0.27559055118110082
42
-0.41421356237309503
10
2.007874015748031
20
0.35433070866141619
10
2.007874015748031
20
0.61023622047243964
42
0.41421356237309492
10
1.8503937007874012
20
0.76771653543306961
10
0.68897637795275579
20
0.7677165354330695
10
0.68897637795275579
20
0.92519685039370303
10
-0.68897637795275579
20
0.92519685039370303
10
-0.68897637795275579
20
0.7677165354330695
10
-1.8503937007874012
20
0.7677165354330695
42
0.41421356237309492
10
-2.007874015748031
20
0.61023622047243942
10
-2.007874015748031
20
0.47244094488188998
42
-0.41421356237309503
10
-2.0866141732283463
20
0.39370078740157494
10
-2.3622047244094482
20
0.39370078740157494
0
CIRCLE
5
101
100
AcDbEntity
8
0
100
AcDbCircle
10
1.0629921259842519
20
0
30
0
40
0.11811023622047236
210
0
220
-0
230
1
0
CIRCLE
5
102
100
AcDbEntity
8
0
100
AcDbCircle
10
-1.0629921259842519
20
1.3204568763781378e-15
30
0
40
0.11811023622047236
210
0
220
-0
230
1
0
CIRCLE
5
103
100
AcDbEntity
8
0
100
AcDbCircle
10
1.8464566929133872
20
-0.31709872133857142
30
0
40
0.059055118110236358
210
0
220
-0
230
1
0
CIRCLE
5
104
100
AcDbEntity
8
0
100
AcDbCircle
10
-1.8464566929133852
20
-0.31709872133858386
30
0
40
0.059055118110236358
210
0
220
-0
230
1
0
CIRCLE
5
105
100
AcDbEntity
8
0
100
AcDbCircle
10
-1.8464566929133848
20
0.31282253850393654
30
0
40
0.059055118110236358
210
0
220
-0
230
1
0
CIRCLE
5
106
100
AcDbEntity
8
0
100
AcDbCircle
10
1.8464566929133828
20
0.31282253850394892
30
0
40
0.059055118110236005
210
0
220
-0
230
1
0
LWPOLYLINE
5
107
100
AcDbEntity
8
0
100
AcDbPolyline
90
20
70
1
43
0.0
10
-1.6929133858267711
20
-0.38501210716535683
42
0.41421356237309503
10
-1.6535433070866137
20
-0.42438218590551435
10
-1.5708661417322825
20
-0.42438218590551419
42
0.41421356237309115
10
-1.531496062992125
20
-0.38501210716535661
42
-0.4142135623730957
10
-1.4921259842519676
20
-0.34564202842519914
10
-1.4527559055118096
20
-0.34564202842519914
42
0.41421356237309503
10
-1.4133858267716519
20
-0.30627194968504168
10
-1.4133858267716519
20
0.30199576685039348
42
0.4142135623730937
10
-1.4527559055118093
20
0.341365845590551
10
-1.4921259842519663
20
0.34136584559055078
42
-0.41421356237309243
10
-1.5314960629921239
20
0.38073592433070846
42
0.41421356237309537
10
-1.5708661417322813
20
0.42010600307086615
10
-1.6535433070866143
20
0.42010600307086482
42
0.41421356237308982
10
-1.6929133858267711
20
0.38073592433070735
10
-1.6929133858267704
20
0.2145669291338583
42
-0.41421356237309503
10
-1.7322834645669278
20
0.17519685039370089
42
-0.41421356237309248
10
-1.6535433070866135
20
0.09645669291338585
10
-1.6535433070866135
20
-0.096456692913385864
42
-0.41421356237309503
10
-1.7322834645669285
20
-0.17519685039370098
42
-0.41421356237309664
10
-1.6929133858267704
20
-0.21456692913385783
0
LWPOLYLINE
5
108
100
AcDbEntity
8
0
100
AcDbPolyline
90
8
70
1
43
0.0
10
-1.7322834645669285
20
0.17519685039370081
10
-2.007874015748031
20
0.17519685039370092
42
-0.4142135623730947
10
-2.0472440944881884
20
0.21456692913385822
10
-2.047244094488188
20
-0.2145669291338583
42
-0.41421356237309537
10
-2.0078740157480306
20
-0.17519685039370081
10
-1.7322834645669285
20
-0.17519685039370081
42
0.41421356237309503
10
-1.6535433070866135
20
-0.096456692913385864
10
-1.6535433070866137
20
0.096456692913385864
42
0.41421356237309503
0
ENDSEC
0
SECTION
2
OBJECTS
0
DICTIONARY
5
C
100
AcDbDictionary
3
ACAD_GROUP
350
D
3
ACAD_MLINESTYLE
350
17
0
DICTIONARY
5
D
100
AcDbDictionary
0
DICTIONARY
5
1A
330
C
100
AcDbDictionary
0
DICTIONARY
5
17
100
AcDbDictionary
0
ENDSEC
0
EOF
