0
SECTION
2
HEADER
9
$INSUNITS
70
1
9
$ACADVER
1
AC1014
9
$HANDSEED
5
FFFF
0
ENDSEC
0
SECTION
2
TABLES
0
TABLE
2
VPORT
5
8
100
AcDbSymbolTable
0
ENDTAB
0
TABLE
2
LTYPE
5
5
100
AcDbSymbolTable
0
LTYPE
5
14
100
AcDbSymbolTableRecord
100
AcDbLinetypeTableRecord
2
BYBLOCK
70
0
0
LTYPE
5
15
100
AcDbSymbolTableRecord
100
AcDbLinetypeTableRecord
2
BYLAYER
70
0
0
LTYPE
5
16
100
AcDbSymbolTableRecord
100
AcDbLinetypeTableRecord
2
DASHED
70
0
3
Dashed __ __ __ __ __ __ __ __ __ __ __ __ __ _
72
65
73
2
40
0.75
49
0.5
74
0
49
-0.25
74
0
0
ENDTAB
0
TABLE
2
LAYER
5
2
100
AcDbSymbolTable
70
2
0
LAYER
5
50
100
AcDbSymbolTableRecord
100
AcDbLayerTableRecord
2
0
70
0
62
7
6
CONTINUOUS
0
ENDTAB
0
TABLE
2
STYLE
5
3
100
AcDbSymbolTable
70
1
0
STYLE
5
11
100
AcDbSymbolTableRecord
100
AcDbTextStyleTableRecord
2
STANDARD
70
0
0
ENDTAB
0
TABLE
2
VIEW
5
6
100
AcDbSymbolTable
70
0
0
ENDTAB
0
TABLE
2
UCS
5
7
100
AcDbSymbolTable
70
0
0
ENDTAB
0
TABLE
2
APPID
5
9
100
AcDbSymbolTable
70
2
0
APPID
5
12
100
AcDbSymbolTableRecord
100
AcDbRegAppTableRecord
2
ACAD
70
0
0
ENDTAB
0
TABLE
2
DIMSTYLE
5
A
100
AcDbSymbolTable
70
1
0
ENDTAB
0
TABLE
2
BLOCK_RECORD
5
1
100
AcDbSymbolTable
70
1
0
BLOCK_RECORD
5
1F
100
AcDbSymbolTableRecord
100
AcDbBlockTableRecord
2
*MODEL_SPACE
0
BLOCK_RECORD
5
1B
100
AcDbSymbolTableRecord
100
AcDbBlockTableRecord
2
*PAPER_SPACE
0
ENDTAB
0
ENDSEC
0
SECTION
2
BLOCKS
0
BLOCK
5
20
100
AcDbEntity
100
AcDbBlockBegin
2
*MODEL_SPACE
0
ENDBLK
5
21
100
AcDbEntity
100
AcDbBlockEnd
0
BLOCK
5
1C
100
AcDbEntity
100
AcDbBlockBegin
2
*PAPER_SPACE
0
ENDBLK
5
1D
100
AcDbEntity
100
AcDbBlockEnd
0
ENDSEC
0
SECTION
2
ENTITIES
0
LINE
5
100
100
AcDbEntity
8
0
100
AcDbLine
10
-2.3622047244094486
20
0
30
0
11
-1.5748031496062989
21
0
31
0
0
LINE
5
101
100
AcDbEntity
8
0
100
AcDbLine
10
-1.5748031496062989
20
-0.15748031496062992
30
0
11
-1.5748031496062989
21
0
31
0
0
LINE
5
102
100
AcDbEntity
8
0
100
AcDbLine
10
-0.78740157480314954
20
-0.15748031496062992
30
0
11
-1.5748031496062991
21
-0.15748031496062992
31
0
0
LINE
5
103
100
AcDbEntity
8
0
100
AcDbLine
10
-0.78740157480314954
20
0
30
0
11
-0.78740157480314954
21
-0.15748031496062992
31
0
0
LINE
5
104
100
AcDbEntity
8
0
100
AcDbLine
10
-0.78740157480314954
20
0
30
0
11
0
21
0
31
0
0
LINE
5
105
100
AcDbEntity
8
0
100
AcDbLine
10
0
20
0
30
0
11
0
21
-0.15748031496062992
31
0
0
LINE
5
106
100
AcDbEntity
8
0
100
AcDbLine
10
0.78740157480314954
20
-0.15748031496062992
30
0
11
0
21
-0.15748031496062992
31
0
0
LINE
5
107
100
AcDbEntity
8
0
100
AcDbLine
10
0.78740157480314954
20
0
30
0
11
0.78740157480314954
21
-0.15748031496062992
31
0
0
LINE
5
108
100
AcDbEntity
8
0
100
AcDbLine
10
0.78740157480314954
20
0
30
0
11
1.5748031496062991
21
0
31
0
0
LINE
5
109
100
AcDbEntity
8
0
100
AcDbLine
10
1.5748031496062991
20
0
30
0
11
1.5748031496062991
21
-0.15748031496062992
31
0
0
LINE
5
110
100
AcDbEntity
8
0
100
AcDbLine
10
2.3622047244094486
20
-0.15748031496062992
30
0
11
1.5748031496062991
21
-0.15748031496062992
31
0
0
LINE
5
111
100
AcDbEntity
8
0
100
AcDbLine
10
2.3622047244094486
20
-0.15748031496062992
30
0
11
2.3622047244094486
21
-1.082677165354331
31
0
0
LINE
5
112
100
AcDbEntity
8
0
100
AcDbLine
10
2.3622047244094486
20
-1.082677165354331
30
0
11
2.6771653543307079
21
-1.082677165354331
31
0
0
LINE
5
113
100
AcDbEntity
8
0
100
AcDbLine
10
2.6771653543307079
20
-1.8700787401574801
30
0
11
2.6771653543307079
21
-1.082677165354331
31
0
0
LINE
5
114
100
AcDbEntity
8
0
100
AcDbLine
10
2.3622047244094486
20
-1.8700787401574801
30
0
11
2.6771653543307079
21
-1.8700787401574801
31
0
0
LINE
5
115
100
AcDbEntity
8
0
100
AcDbLine
10
2.3622047244094486
20
-1.8700787401574801
30
0
11
2.3622047244094486
21
-2.7952755905511806
31
0
0
LINE
5
116
100
AcDbEntity
8
0
100
AcDbLine
10
2.3622047244094486
20
-2.7952755905511806
30
0
11
1.5748031496062991
21
-2.7952755905511806
31
0
0
LINE
5
117
100
AcDbEntity
8
0
100
AcDbLine
10
1.5748031496062991
20
-2.9527559055118107
30
0
11
1.5748031496062991
21
-2.7952755905511806
31
0
0
LINE
5
118
100
AcDbEntity
8
0
100
AcDbLine
10
1.5748031496062991
20
-2.9527559055118107
30
0
11
0.78740157480314976
21
-2.9527559055118107
31
0
0
LINE
5
119
100
AcDbEntity
8
0
100
AcDbLine
10
0.78740157480314954
20
-2.9527559055118107
30
0
11
0.78740157480314954
21
-2.7952755905511806
31
0
0
LINE
5
120
100
AcDbEntity
8
0
100
AcDbLine
10
1.7483827159451283e-16
20
-2.7952755905511806
30
0
11
0.78740157480314976
21
-2.7952755905511806
31
0
0
LINE
5
121
100
AcDbEntity
8
0
100
AcDbLine
10
1.7483827159451283e-16
20
-2.9527559055118107
30
0
11
1.7483827159451283e-16
21
-2.7952755905511806
31
0
0
LINE
5
122
100
AcDbEntity
8
0
100
AcDbLine
10
1.7483827159451283e-16
20
-2.9527559055118107
30
0
11
-0.78740157480314932
21
-2.9527559055118107
31
0
0
LINE
5
123
100
AcDbEntity
8
0
100
AcDbLine
10
-0.78740157480314954
20
-2.9527559055118107
30
0
11
-0.78740157480314954
21
-2.7952755905511806
31
0
0
LINE
5
124
100
AcDbEntity
8
0
100
AcDbLine
10
-1.5748031496062989
20
-2.7952755905511806
30
0
11
-0.78740157480314932
21
-2.7952755905511806
31
0
0
LINE
5
125
100
AcDbEntity
8
0
100
AcDbLine
10
-1.5748031496062991
20
-2.9527559055118107
30
0
11
-1.5748031496062991
21
-2.7952755905511806
31
0
0
LINE
5
126
100
AcDbEntity
8
0
100
AcDbLine
10
-1.5748031496062989
20
-2.9527559055118107
30
0
11
-2.3622047244094486
21
-2.9527559055118107
31
0
0
LINE
5
127
100
AcDbEntity
8
0
100
AcDbLine
10
-2.3622047244094477
20
-1.8700787401574801
30
0
11
-2.3622047244094486
21
-2.9527559055118107
31
0
0
LINE
5
128
100
AcDbEntity
8
0
100
AcDbLine
10
-2.3622047244094477
20
-1.8700787401574801
30
0
11
-2.6771653543307079
21
-1.8700787401574801
31
0
0
LINE
5
129
100
AcDbEntity
8
0
100
AcDbLine
10
-2.6771653543307079
20
-1.8700787401574801
30
0
11
-2.6771653543307079
21
-1.082677165354331
31
0
0
LINE
5
130
100
AcDbEntity
8
0
100
AcDbLine
10
-2.3622047244094477
20
-1.082677165354331
30
0
11
-2.6771653543307079
21
-1.082677165354331
31
0
0
LINE
5
131
100
AcDbEntity
8
0
100
AcDbLine
10
-2.3622047244094486
20
0
30
0
11
-2.3622047244094477
21
-1.082677165354331
31
0
0
LWPOLYLINE
5
132
100
AcDbEntity
8
0
100
AcDbPolyline
90
20
70
1
43
0.0
10
-2.2047244094488194
20
-0.35433070866141714
10
-1.4691062515306685
20
-0.35433070866141742
42
-0.1539147210598299
10
-1.4465245020680289
20
-0.36145070691775638
10
-1.2894858820426225
20
-0.47141033244959679
42
0.15391472105983653
10
-1.2669041325799828
20
-0.47853033070593559
10
1.2669041325799821
20
-0.47853033070593454
42
0.1539147210598239
10
1.2894858820426216
20
-0.47141033244959574
10
1.4465245020680291
20
-0.36145070691775638
42
-0.15391472105982795
10
1.4691062515306685
20
-0.35433070866141758
10
2.2047244094488185
20
-0.35433070866141725
42
-0.99999999999999989
10
2.2047244094488185
20
-0.43307086614173229
10
1.4939329278203535
20
-0.43307086614173229
42
0.15391472105983342
10
1.4713511783577136
20
-0.44019086439807154
10
1.3143125583323083
20
-0.55015048992991211
42
-0.15391472105983001
10
1.2917308088696686
20
-0.55727048818625113
10
-1.2917308088696637
20
-0.55727048818625047
42
-0.15391472105982568
10
-1.3143125583323028
20
-0.55015048992991167
10
-1.4713511783577142
20
-0.4401908643980707
42
0.15391472105982382
10
-1.4939329278203535
20
-0.43307086614173212
10
-2.2047244094488194
20
-0.43307086614173212
42
-0.99999999999999989
0
LWPOLYLINE
5
133
100
AcDbEntity
8
0
100
AcDbPolyline
90
20
70
1
43
0.0
10
2.2047244094488194
20
-2.5984251968503935
42
0.99999999999999989
10
2.2047244094488194
20
-2.5196850393700787
10
1.4939329278203548
20
-2.5196850393700787
42
-0.15391472105982706
10
1.4713511783577151
20
-2.5125650411137399
10
1.3143125583323076
20
-2.4026054155818981
42
0.1539147210598297
10
1.291730808869668
20
-2.3954854173255589
10
-1.2917308088696622
20
-2.3954854173255602
42
0.15391472105982976
10
-1.3143125583323019
20
-2.402605415581899
10
-1.4713511783577149
20
-2.5125650411137403
42
-0.15391472105980081
10
-1.4939329278203537
20
-2.5196850393700791
10
-2.2047244094488185
20
-2.5196850393700787
42
0.99999999999999989
10
-2.2047244094488185
20
-2.5984251968503935
10
-1.4691062515306683
20
-2.5984251968503935
42
0.15391472105983198
10
-1.4465245020680286
20
-2.5913051985940543
10
-1.2894858820426225
20
-2.4813455730622134
42
-0.15391472105981752
10
-1.2669041325799826
20
-2.4742255748058746
10
1.2669041325799819
20
-2.4742255748058763
42
-0.15391472105984025
10
1.2894858820426212
20
-2.4813455730622151
10
1.4465245020680286
20
-2.5913051985940547
42
0.1539147210598297
10
1.4691062515306683
20
-2.5984251968503931
0
LWPOLYLINE
5
134
100
AcDbEntity
8
0
100
AcDbPolyline
90
9
70
1
43
0.0
10
0.15748031496062992
20
-1.2036140460521454
42
0.25578832740816215
10
-0.29013601484087431
20
-0.93141526257675133
42
0.29249799345005451
10
-0.32688352638941948
20
-0.95263144826135282
42
0.25578832740816176
10
-0.31496062992125973
20
-1.4763779527559058
42
0.2557883274081616
10
-0.32688352638941881
20
-2.000124457250458
42
0.29249799345005673
10
-0.29013601484087304
20
-2.0213406429350598
42
0.25578832740816237
10
0.15748031496063036
20
-1.7491418594596655
42
0.25578832740816232
10
0.61701954123029334
20
-1.4975941384405063
42
0.29249799345005328
10
0.61701954123029334
20
-1.4551617670713033
42
0.25578832740816149
0
ENDSEC
0
SECTION
2
OBJECTS
0
DICTIONARY
5
C
100
AcDbDictionary
3
ACAD_GROUP
350
D
3
ACAD_MLINESTYLE
350
17
0
DICTIONARY
5
D
100
AcDbDictionary
0
DICTIONARY
5
1A
330
C
100
AcDbDictionary
0
DICTIONARY
5
17
100
AcDbDictionary
0
ENDSEC
0
EOF
