0
SECTION
2
HEADER
9
$INSUNITS
70
1
9
$ACADVER
1
AC1014
9
$HANDSEED
5
FFFF
0
ENDSEC
0
SECTION
2
TABLES
0
TABLE
2
VPORT
5
8
100
AcDbSymbolTable
0
ENDTAB
0
TABLE
2
LTYPE
5
5
100
AcDbSymbolTable
0
LTYPE
5
14
100
AcDbSymbolTableRecord
100
AcDbLinetypeTableRecord
2
BYBLOCK
70
0
0
LTYPE
5
15
100
AcDbSymbolTableRecord
100
AcDbLinetypeTableRecord
2
BYLAYER
70
0
0
LTYPE
5
16
100
AcDbSymbolTableRecord
100
AcDbLinetypeTableRecord
2
DASHED
70
0
3
Dashed __ __ __ __ __ __ __ __ __ __ __ __ __ _
72
65
73
2
40
0.75
49
0.5
74
0
49
-0.25
74
0
0
ENDTAB
0
TABLE
2
LAYER
5
2
100
AcDbSymbolTable
70
2
0
LAYER
5
50
100
AcDbSymbolTableRecord
100
AcDbLayerTableRecord
2
0
70
0
62
7
6
CONTINUOUS
0
ENDTAB
0
TABLE
2
STYLE
5
3
100
AcDbSymbolTable
70
1
0
STYLE
5
11
100
AcDbSymbolTableRecord
100
AcDbTextStyleTableRecord
2
STANDARD
70
0
0
ENDTAB
0
TABLE
2
VIEW
5
6
100
AcDbSymbolTable
70
0
0
ENDTAB
0
TABLE
2
UCS
5
7
100
AcDbSymbolTable
70
0
0
ENDTAB
0
TABLE
2
APPID
5
9
100
AcDbSymbolTable
70
2
0
APPID
5
12
100
AcDbSymbolTableRecord
100
AcDbRegAppTableRecord
2
ACAD
70
0
0
ENDTAB
0
TABLE
2
DIMSTYLE
5
A
100
AcDbSymbolTable
70
1
0
ENDTAB
0
TABLE
2
BLOCK_RECORD
5
1
100
AcDbSymbolTable
70
1
0
BLOCK_RECORD
5
1F
100
AcDbSymbolTableRecord
100
AcDbBlockTableRecord
2
*MODEL_SPACE
0
BLOCK_RECORD
5
1B
100
AcDbSymbolTableRecord
100
AcDbBlockTableRecord
2
*PAPER_SPACE
0
ENDTAB
0
ENDSEC
0
SECTION
2
BLOCKS
0
BLOCK
5
20
100
AcDbEntity
100
AcDbBlockBegin
2
*MODEL_SPACE
0
ENDBLK
5
21
100
AcDbEntity
100
AcDbBlockEnd
0
BLOCK
5
1C
100
AcDbEntity
100
AcDbBlockBegin
2
*PAPER_SPACE
0
ENDBLK
5
1D
100
AcDbEntity
100
AcDbBlockEnd
0
ENDSEC
0
SECTION
2
ENTITIES
0
LWPOLYLINE
5
100
100
AcDbEntity
8
0
100
AcDbPolyline
90
8
70
1
43
0.0
10
1.1122047244094306
20
-0.39370078740157477
42
0.41421356237309459
10
1.1909448818897452
20
-0.31496062992126006
10
1.1909448818897468
20
0.31496062992126084
42
0.4142135623730957
10
1.1122047244094317
20
0.39370078740157599
10
0.95472440944880077
20
0.39370078740157599
42
0.41421356237309537
10
0.87598425196848584
20
0.31496062992126106
10
0.87598425196848662
20
-0.31496062992126
42
0.41421356237309537
10
0.95472440944880166
20
-0.39370078740157477
0
LWPOLYLINE
5
101
100
AcDbEntity
8
0
100
AcDbPolyline
90
16
70
1
43
0.0
10
-1.6141732283464567
20
0.68897637795275868
10
-1.6141732283464567
20
-0.68897637795275835
42
0.41421356237309731
10
-1.5354330708661414
20
-0.76771653543307328
10
-0.68897637795275624
20
-0.76771653543307039
42
0.41421356237310447
10
-0.61023622047244119
20
-0.84645669291338765
10
0.61023622047244053
20
-0.84645669291338765
42
0.41421356237310447
10
0.68897637795275546
20
-0.76771653543307039
10
1.5354330708661414
20
-0.76771653543307328
42
0.4142135623730947
10
1.614173228346456
20
-0.6889763779527478
10
1.614173228346456
20
0.68897637795274813
42
0.4142135623730947
10
1.5354330708661414
20
0.76771653543306306
10
0.68897637795275546
20
0.76771653543307072
42
0.41421356237310381
10
0.61023622047244075
20
0.84645669291338799
10
-0.6102362204724413
20
0.84645669291338799
42
0.4142135623731048
10
-0.68897637795275624
20
0.76771653543307072
10
-1.5354330708661414
20
0.76771653543307361
42
0.41421356237309731
0
LWPOLYLINE
5
102
100
AcDbEntity
8
0
100
AcDbPolyline
90
8
70
1
43
0.0
10
-0.95472440944883619
20
-0.39370078740157449
10
-1.1122047244094664
20
-0.39370078740157449
42
-0.41421356237309503
10
-1.1909448818897812
20
-0.31496062992125967
10
-1.1909448818897812
20
0.31496062992126028
42
-0.41421356237309503
10
-1.1122047244094664
20
0.3937007874015751
10
-0.95472440944883619
20
0.39370078740157521
42
-0.41421356237309503
10
-0.87598425196852125
20
0.31496062992126017
10
-0.87598425196852125
20
-0.31496062992125956
42
-0.41421356237309503
0
LWPOLYLINE
5
103
100
AcDbEntity
8
0
100
AcDbPolyline
90
8
70
1
43
0.0
10
-0.19685039370078608
20
0.14763779527559021
10
0.19685039370078874
20
0.14763779527559023
42
-0.41421356237309509
10
0.2755905511811037
20
0.068897637795275288
10
0.2755905511811037
20
-0.068897637795275884
42
-0.41421356237309503
10
0.19685039370078877
20
-0.14763779527559082
10
-0.19685039370078608
20
-0.14763779527559082
42
-0.41421356237309503
10
-0.27559055118110098
20
-0.068897637795275843
10
-0.27559055118110098
20
0.068897637795275274
42
-0.41421356237309503
0
LWPOLYLINE
5
104
100
AcDbEntity
8
0
100
AcDbPolyline
90
2
70
1
43
0.0
10
1.1122047244094302
20
-0.31496062992125956
10
0.95472440944880166
20
-0.31496062992125956
0
LWPOLYLINE
5
105
100
AcDbEntity
8
0
100
AcDbPolyline
90
8
70
1
43
0.0
10
-0.87598425196852125
20
0.31496062992126017
42
0.41421356237309503
10
-0.95472440944883619
20
0.39370078740157521
10
-1.1122047244094664
20
0.3937007874015751
42
0.4142135623730952
10
-1.1909448818897812
20
0.31496062992126023
10
-1.1909448818897812
20
-0.31496062992125962
42
0.4142135623730952
10
-1.1122047244094664
20
-0.39370078740157449
10
-0.95472440944883619
20
-0.39370078740157449
42
0.41421356237309503
10
-0.87598425196852125
20
-0.31496062992125956
0
LWPOLYLINE
5
106
100
AcDbEntity
8
0
100
AcDbPolyline
90
4
70
1
43
0.0
10
-1.1122047244094664
20
0.31496062992126028
10
-0.95472440944883619
20
0.31496062992126017
10
-0.95472440944883619
20
-0.31496062992125956
10
-1.1122047244094664
20
-0.31496062992125967
0
LWPOLYLINE
5
107
100
AcDbEntity
8
0
100
AcDbPolyline
90
8
70
1
43
0.0
10
1.1909448818897468
20
0.31496062992126084
42
0.41421356237309631
10
1.1122047244094315
20
0.3937007874015761
10
0.95472440944880077
20
0.39370078740157599
42
0.41421356237309537
10
0.87598425196848584
20
0.31496062992126106
10
0.87598425196848639
20
-0.31496062992126
42
0.4142135623730947
10
0.95472440944880121
20
-0.39370078740157477
10
1.1122047244094306
20
-0.39370078740157477
42
0.41421356237309437
10
1.1909448818897455
20
-0.31496062992126012
0
LWPOLYLINE
5
108
100
AcDbEntity
8
0
100
AcDbPolyline
90
4
70
1
43
0.0
10
0.95472440944880077
20
0.31496062992126117
10
1.1122047244094317
20
0.314960629921261
10
1.1122047244094306
20
-0.31496062992125989
10
0.95472440944880121
20
-0.31496062992125989
0
LWPOLYLINE
5
109
100
AcDbEntity
8
0
100
AcDbPolyline
90
2
70
1
43
0.0
10
-0.95472440944883619
20
-0.31496062992125956
10
-1.1122047244094662
20
-0.31496062992125956
0
ENDSEC
0
SECTION
2
OBJECTS
0
DICTIONARY
5
C
100
AcDbDictionary
3
ACAD_GROUP
350
D
3
ACAD_MLINESTYLE
350
17
0
DICTIONARY
5
D
100
AcDbDictionary
0
DICTIONARY
5
1A
330
C
100
AcDbDictionary
0
DICTIONARY
5
17
100
AcDbDictionary
0
ENDSEC
0
EOF
