0
SECTION
2
HEADER
9
$INSUNITS
70
1
9
$ACADVER
1
AC1014
9
$HANDSEED
5
FFFF
0
ENDSEC
0
SECTION
2
TABLES
0
TABLE
2
VPORT
5
8
100
AcDbSymbolTable
0
ENDTAB
0
TABLE
2
LTYPE
5
5
100
AcDbSymbolTable
0
LTYPE
5
14
100
AcDbSymbolTableRecord
100
AcDbLinetypeTableRecord
2
BYBLOCK
70
0
0
LTYPE
5
15
100
AcDbSymbolTableRecord
100
AcDbLinetypeTableRecord
2
BYLAYER
70
0
0
LTYPE
5
16
100
AcDbSymbolTableRecord
100
AcDbLinetypeTableRecord
2
DASHED
70
0
3
Dashed __ __ __ __ __ __ __ __ __ __ __ __ __ _
72
65
73
2
40
0.75
49
0.5
74
0
49
-0.25
74
0
0
ENDTAB
0
TABLE
2
LAYER
5
2
100
AcDbSymbolTable
70
2
0
LAYER
5
50
100
AcDbSymbolTableRecord
100
AcDbLayerTableRecord
2
0
70
0
62
7
6
CONTINUOUS
0
ENDTAB
0
TABLE
2
STYLE
5
3
100
AcDbSymbolTable
70
1
0
STYLE
5
11
100
AcDbSymbolTableRecord
100
AcDbTextStyleTableRecord
2
STANDARD
70
0
0
ENDTAB
0
TABLE
2
VIEW
5
6
100
AcDbSymbolTable
70
0
0
ENDTAB
0
TABLE
2
UCS
5
7
100
AcDbSymbolTable
70
0
0
ENDTAB
0
TABLE
2
APPID
5
9
100
AcDbSymbolTable
70
2
0
APPID
5
12
100
AcDbSymbolTableRecord
100
AcDbRegAppTableRecord
2
ACAD
70
0
0
ENDTAB
0
TABLE
2
DIMSTYLE
5
A
100
AcDbSymbolTable
70
1
0
ENDTAB
0
TABLE
2
BLOCK_RECORD
5
1
100
AcDbSymbolTable
70
1
0
BLOCK_RECORD
5
1F
100
AcDbSymbolTableRecord
100
AcDbBlockTableRecord
2
*MODEL_SPACE
0
BLOCK_RECORD
5
1B
100
AcDbSymbolTableRecord
100
AcDbBlockTableRecord
2
*PAPER_SPACE
0
ENDTAB
0
ENDSEC
0
SECTION
2
BLOCKS
0
BLOCK
5
20
100
AcDbEntity
100
AcDbBlockBegin
2
*MODEL_SPACE
0
ENDBLK
5
21
100
AcDbEntity
100
AcDbBlockEnd
0
BLOCK
5
1C
100
AcDbEntity
100
AcDbBlockBegin
2
*PAPER_SPACE
0
ENDBLK
5
1D
100
AcDbEntity
100
AcDbBlockEnd
0
ENDSEC
0
SECTION
2
ENTITIES
0
LWPOLYLINE
5
100
100
AcDbEntity
8
0
100
AcDbPolyline
90
14
70
1
43
0.0
10
-1.4921259842519676
20
-0.34564202842519914
42
0.41421356237309309
10
-1.531496062992125
20
-0.38501210716535661
42
-0.41421356237309437
10
-1.5708661417322825
20
-0.42438218590551419
10
-1.6998031496062975
20
-0.42438218590551419
42
-0.41421356237309342
10
-1.7391732283464549
20
-0.38501210716535705
10
-1.7391732283464587
20
0.38073592433070841
42
-0.41421356237309664
10
-1.6998031496063015
20
0.42010600307086615
10
-1.5708661417322813
20
0.42010600307086615
42
-0.41421356237309503
10
-1.5314960629921239
20
0.38073592433070846
42
0.41421356237309437
10
-1.4921259842519663
20
0.34136584559055089
10
-1.4527559055118093
20
0.341365845590551
42
-0.4142135623730937
10
-1.4133858267716519
20
0.30199576685039348
10
-1.4133858267716519
20
-0.30627194968504168
42
-0.41421356237309503
10
-1.4527559055118096
20
-0.34564202842519914
0
LWPOLYLINE
5
101
100
AcDbEntity
8
0
100
AcDbPolyline
90
26
70
1
43
0.0
10
-0.68897637795275579
20
0.76771653543306595
10
-1.9685039370078738
20
0.76771653543306173
42
0.41421356237309359
10
-2.1259842519685033
20
0.61023622047243153
10
-2.1259842519685037
20
0.47244094488188987
42
-0.41421356237309503
10
-2.2047244094488185
20
0.39370078740157494
10
-2.3622047244094482
20
0.39370078740157494
10
-2.3622047244094482
20
-0.3937007874015746
10
-2.2047244094488185
20
-0.3937007874015746
42
-0.41421356237309503
10
-2.1259842519685037
20
-0.47244094488188965
10
-2.1259842519685037
20
-0.61023622047244019
42
0.41421356237309426
10
-1.9685039370078732
20
-0.76771653543307017
10
-0.68897637795275579
20
-0.76771653543306995
10
-0.68897637795275579
20
-0.84645669291338765
42
0.41421356237309437
10
-0.61023622047244086
20
-0.9251968503937027
10
0.41338582677165342
20
-0.9251968503937027
42
0.41421356237309437
10
0.4921259842519683
20
-0.84645669291338765
10
0.49212598425196846
20
-0.76771653543306995
10
1.9685039370078734
20
-0.76771653543306995
42
0.41421356237309598
10
2.1259842519685037
20
-0.61023622047243997
10
2.1259842519685037
20
0.61023622047244519
42
0.4142135623730962
10
1.9685039370078727
20
0.76771653543307516
10
0.49212598425196846
20
0.76771653543306995
10
0.49212598425196846
20
0.84645669291338799
42
0.41421356237309503
10
0.41338582677165342
20
0.92519685039370303
10
-0.61023622047244086
20
0.92519685039370303
42
0.41421356237309437
10
-0.68897637795275568
20
0.84645669291338799
0
CIRCLE
5
102
100
AcDbEntity
8
0
100
AcDbCircle
10
-1.8464566929133848
20
0.3128225385039351
30
0
40
0.059055118110236358
210
0
220
-0
230
1
0
CIRCLE
5
103
100
AcDbEntity
8
0
100
AcDbCircle
10
-1.8464566929133852
20
-0.3170987213385853
30
0
40
0.059055118110236358
210
0
220
-0
230
1
0
CIRCLE
5
104
100
AcDbEntity
8
0
100
AcDbCircle
10
1.8464566929133872
20
-0.31709872133857142
30
0
40
0.059055118110236358
210
0
220
-0
230
1
0
CIRCLE
5
105
100
AcDbEntity
8
0
100
AcDbCircle
10
1.0629921259842519
20
0
30
0
40
0.059055118110236358
210
0
220
-0
230
1
0
CIRCLE
5
106
100
AcDbEntity
8
0
100
AcDbCircle
10
-1.0629921259842519
20
1.3204568763781378e-15
30
0
40
0.059055118110236178
210
0
220
-0
230
1
0
CIRCLE
5
107
100
AcDbEntity
8
0
100
AcDbCircle
10
1.8464566929133828
20
0.31282253850394892
30
0
40
0.059055118110236005
210
0
220
-0
230
1
0
CIRCLE
5
108
100
AcDbEntity
8
0
100
AcDbCircle
10
-1.0629921259842519
20
1.3204568763781378e-15
30
0
40
0.059055118110236178
210
-0
220
0
230
1
0
CIRCLE
5
109
100
AcDbEntity
8
0
100
AcDbCircle
10
-1.0629921259842519
20
1.3204568763781378e-15
30
0
40
0.11811023622047236
210
-0
220
0
230
1
0
CIRCLE
5
110
100
AcDbEntity
8
0
100
AcDbCircle
10
1.0629921259842519
20
0
30
0
40
0.059055118110236358
210
-0
220
0
230
1
0
CIRCLE
5
111
100
AcDbEntity
8
0
100
AcDbCircle
10
1.0629921259842519
20
0
30
0
40
0.11811023622047236
210
-0
220
0
230
1
0
LWPOLYLINE
5
112
100
AcDbEntity
8
0
100
AcDbPolyline
90
7
70
1
43
0.0
10
-1.4527559055118093
20
0.37018674352633341
42
0.26794919243112209
10
-1.4330708661417306
20
0.33609125518836347
42
0.13165249758739428
10
-1.4527559055118091
20
0.34136584559055094
10
-1.4921259842519665
20
0.34136584559055094
42
-0.41421356237309503
10
-1.5314960629921239
20
0.38073592433070846
42
0.41421356237309698
10
-1.5708661417322813
20
0.42010600307086604
10
-1.4527559055118091
20
0.42010600307086599
0
LWPOLYLINE
5
113
100
AcDbEntity
8
0
100
AcDbPolyline
90
7
70
1
43
0.0
10
-1.4330708661417311
20
-0.34036743802301189
42
0.26794919243112331
10
-1.4527559055118098
20
-0.374462926360982
10
-1.4527559055118098
20
-0.42438218590551408
10
-1.5708661417322825
20
-0.42438218590551419
42
0.4142135623730957
10
-1.5314960629921253
20
-0.38501210716535661
42
-0.41421356237309503
10
-1.4921259842519676
20
-0.34564202842519914
10
-1.4527559055118098
20
-0.34564202842519914
42
0.13165249758739619
0
LWPOLYLINE
5
114
100
AcDbEntity
8
0
100
AcDbPolyline
90
6
70
1
43
0.0
10
-1.948818897637794
20
0.42010600307086571
10
-1.6998031496063015
20
0.42010600307086615
42
0.41421356237309859
10
-1.7391732283464587
20
0.38073592433070841
10
-1.7391732283464549
20
-0.38501210716535705
42
0.41421356237309537
10
-1.6998031496062975
20
-0.42438218590551446
10
-1.9488188976377949
20
-0.42438218590551313
0
CIRCLE
5
115
100
AcDbEntity
8
0
100
AcDbCircle
10
-1.8464566929133852
20
-0.3170987213385853
30
0
40
0.059055118110236358
210
-0
220
0
230
1
0
CIRCLE
5
116
100
AcDbEntity
8
0
100
AcDbCircle
10
-1.8464566929133848
20
0.3128225385039351
30
0
40
0.059055118110236358
210
-0
220
0
230
1
0
LWPOLYLINE
5
117
100
AcDbEntity
8
0
100
AcDbPolyline
90
6
70
1
43
0.0
10
-2.0472440944881884
20
0.21456692913386124
42
0.41421356237309537
10
-2.0866141732283459
20
0.25393700787401863
10
-2.3622047244094482
20
0.25393700787401868
10
-2.3622047244094482
20
-0.25393700787400619
10
-2.0866141732283459
20
-0.25393700787400614
42
0.41421356237309503
10
-2.0472440944881884
20
-0.21456692913384873
0
LWPOLYLINE
5
118
100
AcDbEntity
8
0
100
AcDbPolyline
90
8
70
1
43
0.0
10
0.27559055118110382
20
0.068897637795275302
10
0.2755905511811037
20
-0.068897637795275898
42
-0.41421356237309503
10
0.19685039370078877
20
-0.14763779527559084
10
-0.19685039370078616
20
-0.14763779527559079
42
-0.4142135623730947
10
-0.27559055118110098
20
-0.068897637795275871
10
-0.27559055118110098
20
0.06889763779527526
42
-0.41421356237309542
10
-0.19685039370078597
20
0.14763779527559023
10
0.19685039370078877
20
0.14763779527559032
42
-0.41421356237309503
0
ENDSEC
0
SECTION
2
OBJECTS
0
DICTIONARY
5
C
100
AcDbDictionary
3
ACAD_GROUP
350
D
3
ACAD_MLINESTYLE
350
17
0
DICTIONARY
5
D
100
AcDbDictionary
0
DICTIONARY
5
1A
330
C
100
AcDbDictionary
0
DICTIONARY
5
17
100
AcDbDictionary
0
ENDSEC
0
EOF
