0
SECTION
2
HEADER
9
$INSUNITS
70
1
9
$ACADVER
1
AC1014
9
$HANDSEED
5
FFFF
0
ENDSEC
0
SECTION
2
TABLES
0
TABLE
2
VPORT
5
8
100
AcDbSymbolTable
0
ENDTAB
0
TABLE
2
LTYPE
5
5
100
AcDbSymbolTable
0
LTYPE
5
14
100
AcDbSymbolTableRecord
100
AcDbLinetypeTableRecord
2
BYBLOCK
70
0
0
LTYPE
5
15
100
AcDbSymbolTableRecord
100
AcDbLinetypeTableRecord
2
BYLAYER
70
0
0
LTYPE
5
16
100
AcDbSymbolTableRecord
100
AcDbLinetypeTableRecord
2
DASHED
70
0
3
Dashed __ __ __ __ __ __ __ __ __ __ __ __ __ _
72
65
73
2
40
0.75
49
0.5
74
0
49
-0.25
74
0
0
ENDTAB
0
TABLE
2
LAYER
5
2
100
AcDbSymbolTable
70
2
0
LAYER
5
50
100
AcDbSymbolTableRecord
100
AcDbLayerTableRecord
2
0
70
0
62
7
6
CONTINUOUS
0
ENDTAB
0
TABLE
2
STYLE
5
3
100
AcDbSymbolTable
70
1
0
STYLE
5
11
100
AcDbSymbolTableRecord
100
AcDbTextStyleTableRecord
2
STANDARD
70
0
0
ENDTAB
0
TABLE
2
VIEW
5
6
100
AcDbSymbolTable
70
0
0
ENDTAB
0
TABLE
2
UCS
5
7
100
AcDbSymbolTable
70
0
0
ENDTAB
0
TABLE
2
APPID
5
9
100
AcDbSymbolTable
70
2
0
APPID
5
12
100
AcDbSymbolTableRecord
100
AcDbRegAppTableRecord
2
ACAD
70
0
0
ENDTAB
0
TABLE
2
DIMSTYLE
5
A
100
AcDbSymbolTable
70
1
0
ENDTAB
0
TABLE
2
BLOCK_RECORD
5
1
100
AcDbSymbolTable
70
1
0
BLOCK_RECORD
5
1F
100
AcDbSymbolTableRecord
100
AcDbBlockTableRecord
2
*MODEL_SPACE
0
BLOCK_RECORD
5
1B
100
AcDbSymbolTableRecord
100
AcDbBlockTableRecord
2
*PAPER_SPACE
0
ENDTAB
0
ENDSEC
0
SECTION
2
BLOCKS
0
BLOCK
5
20
100
AcDbEntity
100
AcDbBlockBegin
2
*MODEL_SPACE
0
ENDBLK
5
21
100
AcDbEntity
100
AcDbBlockEnd
0
BLOCK
5
1C
100
AcDbEntity
100
AcDbBlockBegin
2
*PAPER_SPACE
0
ENDBLK
5
1D
100
AcDbEntity
100
AcDbBlockEnd
0
ENDSEC
0
SECTION
2
ENTITIES
0
LWPOLYLINE
5
100
100
AcDbEntity
8
0
100
AcDbPolyline
90
40
70
1
43
0.0
10
-1.5921259842519675
20
0.17518474322834585
10
-1.5921259842519664
20
0.30199576685039353
42
-0.4142135623730947
10
-1.5527559055118092
20
0.34136584559055094
10
-1.4527559055118096
20
0.34136584559055105
42
-0.41421356237309537
10
-1.4133858267716521
20
0.30199576685039348
10
-1.4133858267716526
20
-0.3062719496850404
42
-0.41421356237309404
10
-1.4527559055118102
20
-0.3456420284251977
10
-1.5527559055118101
20
-0.34564202842519781
42
-0.41421356237309537
10
-1.5921259842519675
20
-0.30627194968504023
10
-1.5921259842519679
20
-0.17914596543307149
42
0.41421356237309237
10
-1.670866141732283
20
-0.10040580795275648
10
-2.0472440944881889
20
-0.10040580795275644
42
0.41421356237309237
10
-2.1259842519685037
20
-0.17914596543307129
10
-2.1259842519685037
20
-0.41338582677165275
42
0.41421356237309342
10
-1.9685039370078745
20
-0.57086614173228256
10
-1.4488657847361817
20
-0.57086614173228278
42
0.12102375126263716
10
-1.266451391404551
20
-0.52605688347131807
10
-1.0341092354254831
20
-0.40457914644318949
42
-0.12102375126263759
10
-0.66928044876222159
20
-0.31496062992125984
10
0.66928044876222159
20
-0.31496062992125989
42
-0.1210237512626377
10
1.0341092354254835
20
-0.4045791464431896
10
1.2664513914045514
20
-0.52605688347131863
42
0.12102375126263808
10
1.4488657847361819
20
-0.57086614173228345
10
1.9685039370078738
20
-0.57086614173228367
42
0.41421356237309492
10
2.1259842519685037
20
-0.41338582677165359
10
2.1259842519685037
20
0.4133858267716578
42
0.41421356237309587
10
1.9685039370078732
20
0.57086614173228756
10
1.4488657847361859
20
0.57086614173228589
42
0.12102375126263662
10
1.2664513914045565
20
0.52605688347132107
10
1.0341092354254835
20
0.40457914644318949
42
-0.12102375126263759
10
0.66928044876222192
20
0.31496062992125984
10
-0.66928044876222181
20
0.31496062992125973
42
-0.12102375126263759
10
-1.0341092354254835
20
0.40457914644318937
10
-1.2664513914045377
20
0.52605688347131152
42
0.12102375126263745
10
-1.4488657847361692
20
0.57086614173227612
10
-1.9685039370078654
20
0.57086614173227435
42
0.4142135623730937
10
-2.1259842519685024
20
0.41338582677163649
10
-2.1259842519685033
20
0.17518474322834601
42
0.4142135623730927
10
-2.047244094488188
20
0.096444585748030928
10
-1.6708661417322825
20
0.096444585748030942
42
0.41421356237309431
0
LWPOLYLINE
5
101
100
AcDbEntity
8
0
100
AcDbPolyline
90
6
70
1
43
0.0
10
-1.8464566929133852
20
-0.19208193076602698
10
-1.7381889763779519
20
-0.25459032605230547
10
-1.7381889763779519
20
-0.3796071166248623
10
-1.8464566929133852
20
-0.44211551191114079
10
-1.9547244094488183
20
-0.3796071166248623
10
-1.9547244094488183
20
-0.25459032605230536
0
LWPOLYLINE
5
102
100
AcDbEntity
8
0
100
AcDbPolyline
90
6
70
1
43
0.0
10
-1.8464566929133848
20
0.43783932907649337
10
-1.7381889763779517
20
0.37533093379021493
10
-1.7381889763779517
20
0.25031414321765805
10
-1.8464566929133848
20
0.18780574793137961
10
-1.9547244094488179
20
0.25031414321765805
10
-1.9547244094488179
20
0.37533093379021493
0
LWPOLYLINE
5
103
100
AcDbEntity
8
0
100
AcDbPolyline
90
6
70
1
43
0.0
10
1.7381889763779488
20
0.37533093379022658
10
1.8464566929133819
20
0.4378393290765058
10
1.9547244094488152
20
0.37533093379022808
10
1.9547244094488165
20
0.2503141432176712
10
1.8464566929133834
20
0.18780574793139201
10
1.7381889763779501
20
0.2503141432176697
0
LWPOLYLINE
5
104
100
AcDbEntity
8
0
100
AcDbPolyline
90
6
70
1
43
0.0
10
1.9547244094488212
20
-0.37960711662484914
10
1.8464566929133879
20
-0.44211551191112836
10
1.7381889763779548
20
-0.37960711662485064
10
1.7381889763779532
20
-0.25459032605229381
10
1.8464566929133865
20
-0.19208193076601457
10
1.9547244094488196
20
-0.2545903260522922
0
LWPOLYLINE
5
105
100
AcDbEntity
8
0
100
AcDbPolyline
90
6
70
1
43
0.0
10
-1.062992125984251
20
0.12501679057255805
10
-0.95472440944881842
20
0.062508395286278814
10
-0.95472440944881942
20
-0.062508395286277954
10
-1.062992125984253
20
-0.12501679057255538
10
-1.1712598425196854
20
-0.062508395286276094
10
-1.1712598425196845
20
0.062508395286280619
0
LWPOLYLINE
5
106
100
AcDbEntity
8
0
100
AcDbPolyline
90
6
70
1
43
0.0
10
1.0629921259842519
20
0.12501679057255671
10
1.171259842519685
20
0.06250839528627837
10
1.171259842519685
20
-0.062508395286278357
10
1.0629921259842519
20
-0.12501679057255669
10
0.95472440944881887
20
-0.062508395286278329
10
0.95472440944881887
20
0.06250839528627837
0
CIRCLE
5
107
100
AcDbEntity
8
0
100
AcDbCircle
10
1.0629921259842519
20
0
30
0
40
0.059055118110236358
210
0
220
-0
230
1
0
CIRCLE
5
108
100
AcDbEntity
8
0
100
AcDbCircle
10
1.8464566929133828
20
0.31282253850394892
30
0
40
0.059055118110236005
210
0
220
-0
230
1
0
CIRCLE
5
109
100
AcDbEntity
8
0
100
AcDbCircle
10
1.8464566929133872
20
-0.31709872133857142
30
0
40
0.059055118110236358
210
0
220
-0
230
1
0
CIRCLE
5
110
100
AcDbEntity
8
0
100
AcDbCircle
10
-1.0629921259842519
20
1.3204568763781378e-15
30
0
40
0.059055118110236178
210
0
220
-0
230
1
0
CIRCLE
5
111
100
AcDbEntity
8
0
100
AcDbCircle
10
-1.8464566929133852
20
-0.31709872133858386
30
0
40
0.059055118110236358
210
-0
220
0
230
1
0
CIRCLE
5
112
100
AcDbEntity
8
0
100
AcDbCircle
10
-1.8464566929133848
20
0.31282253850393654
30
0
40
0.059055118110236358
210
-0
220
0
230
1
0
LWPOLYLINE
5
113
100
AcDbEntity
8
0
100
AcDbPolyline
90
8
70
1
43
0.0
10
-0.27559055118110098
20
-0.068897637795275871
10
-0.27559055118110098
20
0.068897637795275246
42
-0.41421356237309515
10
-0.19685039370078605
20
0.14763779527559021
10
0.19685039370078874
20
0.14763779527559023
42
-0.41421356237309509
10
0.2755905511811037
20
0.068897637795275288
10
0.2755905511811037
20
-0.068897637795275884
42
-0.41421356237309503
10
0.19685039370078877
20
-0.14763779527559082
10
-0.19685039370078608
20
-0.14763779527559082
42
-0.41421356237309498
0
ENDSEC
0
SECTION
2
OBJECTS
0
DICTIONARY
5
C
100
AcDbDictionary
3
ACAD_GROUP
350
D
3
ACAD_MLINESTYLE
350
17
0
DICTIONARY
5
D
100
AcDbDictionary
0
DICTIONARY
5
1A
330
C
100
AcDbDictionary
0
DICTIONARY
5
17
100
AcDbDictionary
0
ENDSEC
0
EOF
