0
SECTION
2
HEADER
9
$INSUNITS
70
1
9
$ACADVER
1
AC1014
9
$HANDSEED
5
FFFF
0
ENDSEC
0
SECTION
2
TABLES
0
TABLE
2
VPORT
5
8
100
AcDbSymbolTable
0
ENDTAB
0
TABLE
2
LTYPE
5
5
100
AcDbSymbolTable
0
LTYPE
5
14
100
AcDbSymbolTableRecord
100
AcDbLinetypeTableRecord
2
BYBLOCK
70
0
0
LTYPE
5
15
100
AcDbSymbolTableRecord
100
AcDbLinetypeTableRecord
2
BYLAYER
70
0
0
LTYPE
5
16
100
AcDbSymbolTableRecord
100
AcDbLinetypeTableRecord
2
DASHED
70
0
3
Dashed __ __ __ __ __ __ __ __ __ __ __ __ __ _
72
65
73
2
40
0.75
49
0.5
74
0
49
-0.25
74
0
0
ENDTAB
0
TABLE
2
LAYER
5
2
100
AcDbSymbolTable
70
2
0
LAYER
5
50
100
AcDbSymbolTableRecord
100
AcDbLayerTableRecord
2
0
70
0
62
7
6
CONTINUOUS
0
ENDTAB
0
TABLE
2
STYLE
5
3
100
AcDbSymbolTable
70
1
0
STYLE
5
11
100
AcDbSymbolTableRecord
100
AcDbTextStyleTableRecord
2
STANDARD
70
0
0
ENDTAB
0
TABLE
2
VIEW
5
6
100
AcDbSymbolTable
70
0
0
ENDTAB
0
TABLE
2
UCS
5
7
100
AcDbSymbolTable
70
0
0
ENDTAB
0
TABLE
2
APPID
5
9
100
AcDbSymbolTable
70
2
0
APPID
5
12
100
AcDbSymbolTableRecord
100
AcDbRegAppTableRecord
2
ACAD
70
0
0
ENDTAB
0
TABLE
2
DIMSTYLE
5
A
100
AcDbSymbolTable
70
1
0
ENDTAB
0
TABLE
2
BLOCK_RECORD
5
1
100
AcDbSymbolTable
70
1
0
BLOCK_RECORD
5
1F
100
AcDbSymbolTableRecord
100
AcDbBlockTableRecord
2
*MODEL_SPACE
0
BLOCK_RECORD
5
1B
100
AcDbSymbolTableRecord
100
AcDbBlockTableRecord
2
*PAPER_SPACE
0
ENDTAB
0
ENDSEC
0
SECTION
2
BLOCKS
0
BLOCK
5
20
100
AcDbEntity
100
AcDbBlockBegin
2
*MODEL_SPACE
0
ENDBLK
5
21
100
AcDbEntity
100
AcDbBlockEnd
0
BLOCK
5
1C
100
AcDbEntity
100
AcDbBlockBegin
2
*PAPER_SPACE
0
ENDBLK
5
1D
100
AcDbEntity
100
AcDbBlockEnd
0
ENDSEC
0
SECTION
2
ENTITIES
0
LWPOLYLINE
5
100
100
AcDbEntity
8
0
100
AcDbPolyline
90
20
70
1
43
0.0
10
-1.2917308088696622
20
-2.3954854173255602
10
1.291730808869668
20
-2.3954854173255589
42
-0.15391472105982978
10
1.3143125583323076
20
-2.4026054155818981
10
1.4713511783577147
20
-2.5125650411137403
42
0.15391472105982765
10
1.4939329278203548
20
-2.5196850393700787
10
2.2047244094488194
20
-2.5196850393700787
42
-0.99999999999999989
10
2.2047244094488194
20
-2.5984251968503935
10
1.4691062515306683
20
-2.5984251968503935
42
-0.15391472105982967
10
1.4465245020680286
20
-2.5913051985940547
10
1.2894858820426212
20
-2.4813455730622151
42
0.1539147210598403
10
1.2669041325799819
20
-2.4742255748058763
10
-1.2669041325799826
20
-2.4742255748058746
42
0.15391472105981752
10
-1.2894858820426227
20
-2.4813455730622134
10
-1.4465245020680286
20
-2.5913051985940543
42
-0.15391472105983195
10
-1.4691062515306683
20
-2.5984251968503935
10
-2.204724409448819
20
-2.5984251968503935
42
-0.99999999999999989
10
-2.2047244094488181
20
-2.5196850393700787
10
-1.4939329278203537
20
-2.5196850393700787
42
0.15391472105980086
10
-1.4713511783577149
20
-2.5125650411137403
10
-1.3143125583323017
20
-2.402605415581899
42
-0.15391472105982931
0
LWPOLYLINE
5
101
100
AcDbEntity
8
0
100
AcDbPolyline
90
32
70
1
43
0.0
10
2.3622047244094486
20
-2.7952755905511806
10
2.3622047244094486
20
-1.8700787401574801
10
2.7559055118110232
20
-1.8700787401574801
10
2.7559055118110232
20
-1.082677165354331
10
2.3622047244094486
20
-1.082677165354331
10
2.3622047244094486
20
-0.15748031496062986
10
1.5748031496062991
20
-0.15748031496062992
10
1.5748031496062991
20
0
10
0.78740157480314954
20
0
10
0.78740157480314954
20
-0.15748031496062992
10
0
20
-0.15748031496062992
10
0
20
0
10
-0.78740157480314954
20
0
10
-0.78740157480314954
20
-0.15748031496062992
10
-1.5748031496062989
20
-0.15748031496062992
10
-1.5748031496062989
20
0
10
-2.3622047244094486
20
0
10
-2.3622047244094477
20
-1.082677165354331
10
-2.7559055118110232
20
-1.082677165354331
10
-2.7559055118110232
20
-1.8700787401574801
10
-2.3622047244094477
20
-1.8700787401574801
10
-2.3622047244094486
20
-2.9527559055118107
10
-1.5748031496062989
20
-2.9527559055118107
10
-1.5748031496062989
20
-2.7952755905511806
10
-0.78740157480314932
20
-2.7952755905511806
10
-0.78740157480314932
20
-2.9527559055118107
10
1.7483827159451283e-16
20
-2.9527559055118107
10
1.7483827159451283e-16
20
-2.7952755905511806
10
0.78740157480314976
20
-2.7952755905511806
10
0.78740157480314976
20
-2.9527559055118107
10
1.5748031496062991
20
-2.9527559055118107
10
1.5748031496062991
20
-2.7952755905511806
0
LWPOLYLINE
5
102
100
AcDbEntity
8
0
100
AcDbPolyline
90
7
70
1
43
0.0
10
-0.32688352638941948
20
-0.95263144826135282
42
0.25578832740816176
10
-0.29013601484087304
20
-2.0213406429350598
42
0.25578832740816143
10
0.15748031496063009
20
-1.7491418594596662
42
0.25578832740816199
10
0.61701954123029323
20
-1.4975941384405065
42
0.292497993450055
10
0.61701954123029334
20
-1.4551617670713033
42
0.25578832740816143
10
0.15748031496063017
20
-1.2036140460521452
42
0.25578832740816193
10
-0.2901360148408742
20
-0.93141526257675122
42
0.292497993450055
0
ARC
5
103
100
AcDbEntity
8
0
100
AcDbCircle
10
-0.29192757711577211
20
-1.982011348450905
30
0
40
0.039370078740157466
210
0
220
0
230
1
100
AcDbArc
50
207.39181580430787
51
272.60818419569227
0
ARC
5
104
100
AcDbEntity
8
0
100
AcDbCircle
10
0.15748031496063009
20
-1.7491418594596662
30
0
40
0.54552781340752043
210
0
220
0
230
1
100
AcDbArc
50
149.99999999999997
51
207.39181580430812
0
LWPOLYLINE
5
105
100
AcDbEntity
8
0
100
AcDbPolyline
90
20
70
1
43
0.0
10
1.2917308088696686
20
-0.55727048818625113
10
-1.2917308088696637
20
-0.55727048818625047
42
-0.15391472105982579
10
-1.3143125583323028
20
-0.55015048992991167
10
-1.4713511783577145
20
-0.44019086439807092
42
0.15391472105982357
10
-1.4939329278203535
20
-0.43307086614173201
10
-2.2047244094488194
20
-0.43307086614173212
42
-0.99999999999999989
10
-2.2047244094488194
20
-0.35433070866141719
10
-1.4691062515306685
20
-0.35433070866141742
42
-0.1539147210598299
10
-1.4465245020680289
20
-0.36145070691775638
10
-1.2894858820426225
20
-0.47141033244959679
42
0.15391472105983653
10
-1.2669041325799828
20
-0.47853033070593559
10
1.2669041325799821
20
-0.47853033070593454
42
0.1539147210598239
10
1.2894858820426216
20
-0.47141033244959574
10
1.4465245020680291
20
-0.36145070691775638
42
-0.15391472105982795
10
1.4691062515306685
20
-0.35433070866141758
10
2.2047244094488185
20
-0.35433070866141725
42
-0.99999999999999989
10
2.2047244094488185
20
-0.43307086614173229
10
1.4939329278203535
20
-0.43307086614173229
42
0.15391472105983198
10
1.4713511783577136
20
-0.44019086439807142
10
1.3143125583323083
20
-0.55015048992991211
42
-0.15391472105983034
0
LWPOLYLINE
5
106
100
AcDbEntity
8
0
100
AcDbPolyline
90
4
70
1
43
0.0
10
-0.25883292183926243
20
-0.98126549590843215
42
0.32943749210766332
10
-0.29936350444040799
20
-1.004665838683616
42
0.22493174756081999
10
-0.28580355442182093
20
-1.4311795875679949
42
-0.21573794116723846
10
0.10375884474865342
20
-1.2062656315407649
42
0.22493174756082029
0
LWPOLYLINE
5
107
100
AcDbEntity
8
0
100
AcDbPolyline
90
3
70
1
43
0.0
10
0.12975835314972661
20
-1.7011260131176962
42
0.2383323609650678
10
0.12975835314972614
20
-1.2516298923941145
42
0.23833236096506799
10
-0.25951670629945256
20
-1.4763779527559058
42
0.23833236096506871
0
LWPOLYLINE
5
108
100
AcDbEntity
8
0
100
AcDbPolyline
90
4
70
1
43
0.0
10
-0.29936350444040732
20
-1.9480900668281951
42
0.32943749210765771
10
-0.25883292183926171
20
-1.971490409603379
42
0.22493174756082018
10
0.10375884474865368
20
-1.7464902739710459
42
-0.21573794116723835
10
-0.28580355442182065
20
-1.5215763179438166
42
0.22493174756082007
0
LWPOLYLINE
5
109
100
AcDbEntity
8
0
100
AcDbPolyline
90
4
70
1
43
0.0
10
0.5581964262796697
20
-1.4997782955310888
42
0.32943749210766449
10
0.5581964262796697
20
-1.4529776099807212
42
0.22493174756082018
10
0.18204470967316694
20
-1.2514639967286754
42
-0.21573794116723846
10
0.18204470967316727
20
-1.7012919087831349
42
0.22493174756082043
0
LWPOLYLINE
5
110
100
AcDbEntity
8
0
100
AcDbPolyline
90
9
70
1
43
0.0
10
0.15748031496062992
20
-1.2036140460521454
42
0.25578832740816215
10
-0.29013601484087431
20
-0.93141526257675133
42
0.29249799345005451
10
-0.32688352638941948
20
-0.95263144826135282
42
0.25578832740816176
10
-0.31496062992125973
20
-1.4763779527559058
42
0.2557883274081616
10
-0.32688352638941881
20
-2.000124457250458
42
0.29249799345005673
10
-0.29013601484087304
20
-2.0213406429350598
42
0.25578832740816232
10
0.15748031496063017
20
-1.7491418594596655
42
0.25578832740816243
10
0.61701954123029334
20
-1.4975941384405063
42
0.29249799345005328
10
0.61701954123029334
20
-1.4551617670713033
42
0.25578832740816149
0
ENDSEC
0
SECTION
2
OBJECTS
0
DICTIONARY
5
C
100
AcDbDictionary
3
ACAD_GROUP
350
D
3
ACAD_MLINESTYLE
350
17
0
DICTIONARY
5
D
100
AcDbDictionary
0
DICTIONARY
5
1A
330
C
100
AcDbDictionary
0
DICTIONARY
5
17
100
AcDbDictionary
0
ENDSEC
0
EOF
