0
SECTION
2
HEADER
9
$INSUNITS
70
1
9
$ACADVER
1
AC1014
9
$HANDSEED
5
FFFF
0
ENDSEC
0
SECTION
2
TABLES
0
TABLE
2
VPORT
5
8
100
AcDbSymbolTable
0
ENDTAB
0
TABLE
2
LTYPE
5
5
100
AcDbSymbolTable
0
LTYPE
5
14
100
AcDbSymbolTableRecord
100
AcDbLinetypeTableRecord
2
BYBLOCK
70
0
0
LTYPE
5
15
100
AcDbSymbolTableRecord
100
AcDbLinetypeTableRecord
2
BYLAYER
70
0
0
LTYPE
5
16
100
AcDbSymbolTableRecord
100
AcDbLinetypeTableRecord
2
DASHED
70
0
3
Dashed __ __ __ __ __ __ __ __ __ __ __ __ __ _
72
65
73
2
40
0.75
49
0.5
74
0
49
-0.25
74
0
0
ENDTAB
0
TABLE
2
LAYER
5
2
100
AcDbSymbolTable
70
2
0
LAYER
5
50
100
AcDbSymbolTableRecord
100
AcDbLayerTableRecord
2
0
70
0
62
7
6
CONTINUOUS
0
ENDTAB
0
TABLE
2
STYLE
5
3
100
AcDbSymbolTable
70
1
0
STYLE
5
11
100
AcDbSymbolTableRecord
100
AcDbTextStyleTableRecord
2
STANDARD
70
0
0
ENDTAB
0
TABLE
2
VIEW
5
6
100
AcDbSymbolTable
70
0
0
ENDTAB
0
TABLE
2
UCS
5
7
100
AcDbSymbolTable
70
0
0
ENDTAB
0
TABLE
2
APPID
5
9
100
AcDbSymbolTable
70
2
0
APPID
5
12
100
AcDbSymbolTableRecord
100
AcDbRegAppTableRecord
2
ACAD
70
0
0
ENDTAB
0
TABLE
2
DIMSTYLE
5
A
100
AcDbSymbolTable
70
1
0
ENDTAB
0
TABLE
2
BLOCK_RECORD
5
1
100
AcDbSymbolTable
70
1
0
BLOCK_RECORD
5
1F
100
AcDbSymbolTableRecord
100
AcDbBlockTableRecord
2
*MODEL_SPACE
0
BLOCK_RECORD
5
1B
100
AcDbSymbolTableRecord
100
AcDbBlockTableRecord
2
*PAPER_SPACE
0
ENDTAB
0
ENDSEC
0
SECTION
2
BLOCKS
0
BLOCK
5
20
100
AcDbEntity
100
AcDbBlockBegin
2
*MODEL_SPACE
0
ENDBLK
5
21
100
AcDbEntity
100
AcDbBlockEnd
0
BLOCK
5
1C
100
AcDbEntity
100
AcDbBlockBegin
2
*PAPER_SPACE
0
ENDBLK
5
1D
100
AcDbEntity
100
AcDbBlockEnd
0
ENDSEC
0
SECTION
2
ENTITIES
0
LWPOLYLINE
5
100
100
AcDbEntity
8
0
100
AcDbPolyline
90
66
70
1
43
0.0
10
2.0078740157480315
20
0.47244094488188981
42
0.4142135623730957
10
2.0866141732283467
20
0.3937007874015746
10
2.3622047244094482
20
0.39370078740157494
10
2.3622047596090421
20
0.60039370078740151
10
2.7559054766114301
20
0.60039370078740151
10
2.7559054766114301
20
0.83661417322834641
10
2.3622047596090421
20
0.83661417322834641
10
2.3622047244094486
20
1.4763779527559051
10
1.5748031496062991
20
1.4763779527559051
10
1.5748031496062991
20
1.3188976377952752
10
0.78740157480314954
20
1.3188976377952752
10
0.78740157480314954
20
1.4763779527559051
10
0
20
1.4763779527559051
10
0
20
1.3188976377952752
10
-0.78740157480314954
20
1.3188976377952752
10
-0.78740157480314954
20
1.4763779527559051
10
-1.5748031496062991
20
1.4763779527559051
10
-1.5748031496062991
20
1.3188976377952752
10
-2.3622047244094486
20
1.3188976377952752
10
-2.3622047244094482
20
0.39370078740157494
10
-2.7559055118110232
20
0.39370078740157494
10
-2.7559055118110232
20
-0.3937007874015746
10
-2.3622047244094482
20
-0.3937007874015746
10
-2.3622047244094486
20
-1.3188976377952752
10
-1.5748031496062991
20
-1.3188976377952752
10
-1.5748031496062991
20
-1.4763779527559051
10
-0.78740157480314954
20
-1.4763779527559051
10
-0.78740157480314954
20
-1.3188976377952752
10
0
20
-1.3188976377952752
10
0
20
-1.4763779527559051
10
0.78740157480314954
20
-1.4763779527559051
10
0.78740157480314954
20
-1.3188976377952752
10
1.5748031496062991
20
-1.3188976377952752
10
1.5748031496062991
20
-1.4763779527559051
10
2.3622047244094486
20
-1.4763779527559051
10
2.3622047596090421
20
-0.83661417322834608
10
2.7559054766114301
20
-0.83661417322834608
10
2.7559054766114301
20
-0.60039370078740117
10
2.3622047596090421
20
-0.60039370078740117
10
2.3622047244094482
20
-0.3937007874015746
10
2.0866141732283467
20
-0.39370078740157477
42
0.41421356237309309
10
2.0078740157480319
20
-0.4724409448818897
10
2.007874015748031
20
-0.61023622047244075
42
-0.41421356237309492
10
1.8503937007874012
20
-0.76771653543307061
10
1.3779527559055471
20
-0.76771653543307061
10
1.3779527559055473
20
-0.92519685039370059
10
-1.3779527559054767
20
-0.92519685039370059
10
-1.3779527559054767
20
-0.76771653543307061
10
-1.8503937007874012
20
-0.76771653543307072
42
-0.41421356237309503
10
-2.007874015748031
20
-0.61023622047244064
10
-2.0078740157480315
20
-0.35433070866141736
42
0.41421356237309293
10
-2.0866141732283467
20
-0.27559055118110221
10
-2.2440944881889768
20
-0.27559055118110221
42
-0.41421356237309537
10
-2.2834645669291342
20
-0.23622047244094482
10
-2.2834645669291338
20
0.23622047244094491
42
-0.4142135623730947
10
-2.2440944881889764
20
0.27559055118110232
10
-2.0866141732283467
20
0.27559055118110232
42
0.41421356237309309
10
-2.0078740157480319
20
0.35433070866141725
10
-2.0078740157480315
20
0.61023622047244053
42
-0.41421356237309503
10
-1.8503937007874014
20
0.7677165354330705
10
-1.3779527559054765
20
0.76771653543307039
10
-1.3779527559054767
20
0.92519685039370059
10
1.3779527559055473
20
0.92519685039370059
10
1.3779527559055471
20
0.76771653543307039
10
1.8503937007874012
20
0.7677165354330705
42
-0.41421356237309503
10
2.007874015748031
20
0.61023622047244053
0
ENDSEC
0
SECTION
2
OBJECTS
0
DICTIONARY
5
C
100
AcDbDictionary
3
ACAD_GROUP
350
D
3
ACAD_MLINESTYLE
350
17
0
DICTIONARY
5
D
100
AcDbDictionary
0
DICTIONARY
5
1A
330
C
100
AcDbDictionary
0
DICTIONARY
5
17
100
AcDbDictionary
0
ENDSEC
0
EOF
